#N canvas 1 15 1187 698 10;
#N canvas 639 19 558 705 fft 0;
#X obj 19 61 inlet~;
#X obj 195 217 inlet;
#X obj 29 92 rfft~;
#X obj 29 125 *~;
#X obj 60 125 *~;
#X obj 29 155 sqrt~;
#X obj 29 181 biquad~ 0 0 0 0 1;
#X text 93 93 Fourier series;
#X text 98 146 magnitude;
#X text 96 131 calculate;
#X text 21 3 This subpatch computes the spectrum of the incoming signal
with a (rectangular windowed) FFT. FFTs aren't properly introduced
until much later.;
#X text 83 61 signal to analyze;
#X text 193 164 delay two samples;
#X text 191 182 for better graphing;
#X obj 19 459 samplerate~;
#X obj 19 436 bng 18 250 50 0 empty empty empty 0 -6 0 8 -262144 -1
-1;
#X floatatom 19 506 5 0 0 0 - - -;
#X obj 19 482 / 256;
#X obj 19 412 loadbang;
#X obj 75 528 s fundamental;
#X text -2 359 At load time \, calculate a good choice of fundamental
frequency for showing spectra: the 16th bin in a 4096-point spectrum
\, so SR*16/4096 or SR/256.;
#X obj 231 236 inlet;
#X text 284 234 toggle to graph repeatedly;
#X text 262 212 bang to graph once;
#X obj 19 528 t b f;
#X msg 19 551 \; cm 6;
#X text 25 585 set carrier multiplier after fundamental;
#X obj 29 205 /~ 4096;
#X msg 209 322 \; pd dsp 1;
#X obj 332 109 block~ 4096 1;
#X obj 231 298 tabwrite~ \$0-spectrum;
#X obj 19 330 tabwrite~ \$0-signal;
#X obj 103 223 *~ 20;
#X obj 204 83 env~;
#X floatatom 253 90 5 0 0 0 - - -;
#X obj 231 259 del 1;
#X obj 286 259 t b;
#X obj 249 471 log~;
#X obj 249 492 *~ 0.1;
#X obj 319 472 *~;
#X obj 344 533 *~;
#X msg 335 443 1;
#X msg 362 442 0;
#X obj 335 414 select 0 1;
#X msg 392 441 1;
#X msg 422 442 0;
#X obj 335 393 r \$0-lin/log;
#X obj 249 515 +~ 1;
#X connect 0 0 2 0;
#X connect 0 0 31 0;
#X connect 0 0 33 0;
#X connect 1 0 28 0;
#X connect 1 0 30 0;
#X connect 1 0 31 0;
#X connect 2 0 3 0;
#X connect 2 0 3 1;
#X connect 2 1 4 0;
#X connect 2 1 4 1;
#X connect 3 0 5 0;
#X connect 4 0 5 0;
#X connect 5 0 6 0;
#X connect 6 0 27 0;
#X connect 14 0 17 0;
#X connect 15 0 14 0;
#X connect 16 0 24 0;
#X connect 17 0 16 0;
#X connect 18 0 15 0;
#X connect 21 0 28 0;
#X connect 21 0 35 0;
#X connect 24 0 25 0;
#X connect 24 1 19 0;
#X connect 27 0 32 0;
#X connect 27 0 37 0;
#X connect 32 0 39 0;
#X connect 33 0 34 0;
#X connect 35 0 30 0;
#X connect 35 0 31 0;
#X connect 35 0 36 0;
#X connect 36 0 35 0;
#X connect 37 0 38 0;
#X connect 38 0 47 0;
#X connect 39 0 30 0;
#X connect 40 0 30 0;
#X connect 41 0 39 1;
#X connect 42 0 40 1;
#X connect 43 0 41 0;
#X connect 43 0 42 0;
#X connect 43 1 44 0;
#X connect 43 1 45 0;
#X connect 44 0 40 1;
#X connect 45 0 39 1;
#X connect 46 0 43 0;
#X connect 47 0 40 0;
#X restore 59 -22 pd fft;
#X obj 29 -163 bng 18 250 50 0 empty empty empty 0 -6 0 8 -262144 -1
-1;
#N canvas 0 0 450 300 (subpatch) 0;
#X array \$0-signal 882 float 0;
#X coords 0 1.02 881 -1.02 200 80 1;
#X restore 171 -48 graph;
#N canvas 0 0 450 300 (subpatch) 0;
#X array \$0-spectrum 259 float 0;
#X coords 0 0.51 258 -0.008 259 130 1;
#X restore 143 70 graph;
#X text 180 43 ---- 0.02 seconds ----;
#X text 235 86 SPECTRUM;
#X obj 60 -196 adc~;
#X obj 10 2 s~ audio;
#X obj 9 -41 *~ 1;
#N canvas 713 242 475 368 autocompress 0;
#X obj 46 51 env~;
#X obj 43 283 line~;
#X obj 27 309 *~;
#X obj 27 331 outlet~;
#X obj 28 28 inlet~;
#X obj -103 273 delread~ \$0-del 16;
#X obj -109 45 delwrite~ \$0-del 24;
#X msg 14 144 0;
#X obj 46 118 moses 0.005;
#X floatatom 131 239 5 0 0 0 - - -;
#X obj 128 324 env~;
#X obj 135 183 -;
#X floatatom 168 238 5 0 0 0 - - -;
#X obj 46 94 t f f f;
#X obj 109 137 t f f;
#X floatatom 87 240 5 0 0 0 - - -;
#X floatatom 128 344 5 0 0 0 - - -;
#X msg 43 262 \$1 5;
#X msg 135 162 100 \$1;
#X obj 86 200 +;
#X obj -103 293 *~ 0.0005;
#X connect 0 0 13 0;
#X connect 0 0 9 0;
#X connect 1 0 2 1;
#X connect 2 0 3 0;
#X connect 2 0 10 0;
#X connect 4 0 0 0;
#X connect 4 0 6 0;
#X connect 5 0 20 0;
#X connect 7 0 17 0;
#X connect 8 0 7 0;
#X connect 8 1 14 0;
#X connect 10 0 16 0;
#X connect 11 0 12 0;
#X connect 11 0 19 1;
#X connect 13 0 8 0;
#X connect 14 0 19 0;
#X connect 14 1 18 0;
#X connect 17 0 1 0;
#X connect 18 0 11 0;
#X connect 19 0 15 0;
#X connect 19 0 17 0;
#X connect 20 0 2 0;
#X restore 61 -154 pd autocompress;
#X obj 60 -82 *~ 0.22;
#X obj 60 -57 *~ 1;
#X obj 60 -108 hip~ 10;
#X obj 105 -20 tgl 15 1 empty empty empty 17 7 0 10 -262144 -1 -1 1
1;
#X obj 45 104 s inibang;
#X obj 46 80 bng 15 250 50 0 empty empty empty 17 7 0 10 -262144 -1
-1;
#X floatatom 188 -96 5 0 0 0 - - -;
#X floatatom 10 45 5 0 0 0 - - -;
#N canvas 490 29 422 654 massMaker 0;
#X obj -223 88 until;
#X obj -223 124 f;
#X obj -196 126 + 1;
#X obj -125 292 f \$0;
#X obj -170 11 loadbang;
#X msg -223 66 8;
#X obj -222 452 s pd-mean;
#X msg -222 313 16;
#X obj -167 317 * 16;
#X msg -223 10 0;
#X obj -222 377 pack 0 0 0 0 0 0;
#X obj -223 192 t f b f f;
#X msg -222 399 obj \$2 \$3 listMaxMin \$1 \$4 \$5 \$6;
#X obj -223 44 t b f b b;
#X obj -101 109 bng 15 250 50 0 empty empty empty 17 7 0 10 -262144
-1 -1;
#X obj -185 267 * 20;
#X obj -56 279 select;
#X obj -23 242 - 1;
#X obj -57 321 s \$0-bang;
#X obj 35 271 bng 15 250 50 0 empty empty empty 17 7 0 10 -262144 -1
-1;
#X obj -57 299 del 10;
#X obj -166 341 + 1;
#X connect 0 0 1 0;
#X connect 1 0 2 0;
#X connect 1 0 11 0;
#X connect 1 0 16 0;
#X connect 2 0 1 1;
#X connect 2 0 15 0;
#X connect 3 0 10 5;
#X connect 4 0 13 0;
#X connect 5 0 0 0;
#X connect 5 0 17 0;
#X connect 7 0 10 0;
#X connect 8 0 21 0;
#X connect 9 0 13 0;
#X connect 10 0 12 0;
#X connect 11 0 7 0;
#X connect 11 2 8 0;
#X connect 11 3 10 4;
#X connect 12 0 6 0;
#X connect 13 0 5 0;
#X connect 13 1 1 1;
#X connect 13 1 10 1;
#X connect 13 2 3 0;
#X connect 14 0 1 0;
#X connect 15 0 10 2;
#X connect 16 0 20 0;
#X connect 17 0 16 1;
#X connect 19 0 18 0;
#X connect 20 0 18 0;
#X connect 21 0 10 3;
#X restore 542 -283 pd massMaker;
#N canvas 688 88 210 188 mean 0;
#X restore 543 -303 pd mean;
#X obj 241 -260 tgl 15 0 empty empty empty 17 7 0 10 -262144 -1 -1
1 1;
#X obj 360 -279 r \$0-max/adr;
#X obj 426 -102 unpack 0 0;
#X msg 360 -78 add2 \$1;
#X obj 457 -60 f;
#X msg 458 -40 add2 \$1];
#X obj 565 -98 unpack 0 0;
#X obj 545 -56 symbol \,;
#X msg 545 -35 add2 \$1;
#X obj 597 -55 f;
#X msg 598 -35 add2 \$1];
#X obj 362 -133 t b b b a;
#X obj 545 -119 t b b b a;
#X msg 565 -77 add2 [\$1;
#X obj 703 -103 unpack 0 0;
#X obj 683 -61 symbol \,;
#X msg 683 -40 add2 \$1;
#X obj 735 -60 f;
#X obj 683 -124 t b b b a;
#X msg 703 -82 add2 [\$1;
#X obj 279 -272 bng 15 250 50 0 empty empty empty 17 7 0 10 -262144
-1 -1;
#X obj 241 -313 loadbang;
#X msg 241 -283 1;
#X obj 849 -65 s \$0-lin/log;
#X obj 849 -87 tgl 15 1 empty empty empty 17 7 0 10 -262144 -1 -1 0
1;
#X msg 468 22;
#X obj 62 -174 *~ 10;
#X floatatom 107 -213 5 0 0 0 - - -;
#X obj 468 81 list;
#X obj 515 106 list length;
#X obj 467 105 t a a;
#X obj 464 142 list;
#X obj 465 162 prepend set;
#X msg 464 185 send [[8 \, 191] \, [19 \, 212] \, [33 \, 43] \, [57
\, 36] \, [67 \, 11] \, [83 \, 17] \, [98 \, 7] \, [117 \, 4]];
#X floatatom 656 123 5 0 0 0 - - -;
#X floatatom 626 -177 5 0 0 0 - - -;
#X obj 360 -188 route 0 1 2 3 4 5 6 7;
#X obj 241 -221 t b b b;
#X floatatom 316 -285 5 0 0 0 - - -;
#X obj 241 -200 s \$0-tabBang;
#X obj 932 -66 s \$0-bang;
#X obj 931 -85 bng 15 250 50 0 empty empty empty 17 7 0 10 -262144
-1 -1;
#X msg 321 -164 set;
#X obj 533 -242 t l;
#X obj 449 -241 list prepend;
#X obj 241 -242 metro 15;
#X floatatom 323 -255 5 0 0 0 - - -;
#X obj 901 215 netsend;
#X obj 514 125 select 32;
#X obj 801 146 metro 5000;
#X obj 801 123 tgl 15 0 empty empty empty 17 7 0 10 -262144 -1 -1 0
1;
#X msg 902 190 connect 192.168.23.146 7000;
#X obj 360 -99 symbol \,;
#X obj 945 7 makefilename;
#X msg 1001 225 disconnect;
#X symbolatom 926 107 10 0 0 0 - - -;
#X obj 926 84 stripfilename;
#X msg 927 59 set \$1;
#X floatatom 924 37 5 0 0 0 - - -;
#X obj 1000 -242 key;
#X floatatom 999 -214 5 0 0 0 - - -;
#X msg 426 -81 set send [[\$1;
#X msg 736 -40 add2 \$1]];
#X floatatom 862 113 5 0 0 0 - - -;
#X connect 1 0 0 1;
#X connect 6 0 46 0;
#X connect 8 0 7 0;
#X connect 9 0 12 0;
#X connect 10 0 11 0;
#X connect 11 0 0 0;
#X connect 11 0 8 0;
#X connect 12 0 10 0;
#X connect 13 0 0 2;
#X connect 15 0 14 0;
#X connect 16 0 10 1;
#X connect 20 0 65 0;
#X connect 21 0 56 0;
#X connect 21 0 64 0;
#X connect 22 0 81 0;
#X connect 22 1 24 1;
#X connect 23 0 45 0;
#X connect 24 0 25 0;
#X connect 25 0 45 0;
#X connect 26 0 33 0;
#X connect 26 1 29 1;
#X connect 27 0 28 0;
#X connect 28 0 45 0;
#X connect 29 0 30 0;
#X connect 30 0 45 0;
#X connect 31 0 72 0;
#X connect 31 1 24 0;
#X connect 31 2 72 0;
#X connect 31 3 22 0;
#X connect 32 0 27 0;
#X connect 32 1 29 0;
#X connect 32 2 27 0;
#X connect 32 3 26 0;
#X connect 33 0 45 0;
#X connect 34 0 39 0;
#X connect 34 1 37 1;
#X connect 35 0 36 0;
#X connect 36 0 45 0;
#X connect 37 0 82 0;
#X connect 38 0 45 0;
#X connect 38 1 37 0;
#X connect 38 2 35 0;
#X connect 38 3 34 0;
#X connect 39 0 45 0;
#X connect 41 0 42 0;
#X connect 42 0 20 0;
#X connect 44 0 43 0;
#X connect 45 0 48 0;
#X connect 46 0 9 0;
#X connect 47 0 46 1;
#X connect 48 0 50 0;
#X connect 49 0 54 0;
#X connect 49 0 68 0;
#X connect 50 0 51 1;
#X connect 50 1 49 0;
#X connect 51 0 52 0;
#X connect 52 0 53 0;
#X connect 53 0 67 0;
#X connect 56 0 31 0;
#X connect 56 1 32 0;
#X connect 56 2 32 0;
#X connect 56 3 32 0;
#X connect 56 4 32 0;
#X connect 56 5 32 0;
#X connect 56 6 32 0;
#X connect 56 7 38 0;
#X connect 57 0 59 0;
#X connect 57 1 62 0;
#X connect 57 2 64 1;
#X connect 61 0 60 0;
#X connect 62 0 45 0;
#X connect 63 0 64 1;
#X connect 64 0 63 0;
#X connect 65 0 57 0;
#X connect 66 0 65 1;
#X connect 68 0 51 0;
#X connect 69 0 53 0;
#X connect 70 0 69 0;
#X connect 71 0 67 0;
#X connect 72 0 23 0;
#X connect 72 0 76 0;
#X connect 74 0 67 0;
#X connect 76 0 75 0;
#X connect 77 0 76 0;
#X connect 78 0 77 0;
#X connect 79 0 80 0;
#X connect 81 0 45 0;
#X connect 82 0 45 0;
#X connect 83 0 69 1;
