#N canvas 62 21 317 549 10;
#N canvas 423 -5 612 723 list-max+pos 1;
#X obj 122 116 list-drip;
#X obj 122 139 route float;
#X obj 135 216 f;
#X obj 145 269 f;
#X obj 106 10 inlet;
#X obj 106 272 f;
#N canvas 0 0 450 300 once 0;
#X obj 110 75 inlet;
#X obj 105 187 spigot 1;
#X obj 110 104 t b f;
#X msg 125 151 0;
#X msg 165 99 1;
#X obj 165 63 inlet;
#X obj 102 219 outlet;
#X connect 0 0 2 0;
#X connect 1 0 6 0;
#X connect 2 0 3 0;
#X connect 2 1 1 0;
#X connect 3 0 1 1;
#X connect 4 0 1 1;
#X connect 5 0 4 0;
#X restore 248 177 pd once;
#X obj 245 216 f;
#X obj 214 217 max;
#X obj 122 194 min;
#X text 321 183 prime [min] and [max] with first item once;
#X obj 122 160 t a a a b;
#X obj 106 235 t b b b;
#X obj 284 302 t b b;
#X obj 420 312 + 1;
#X obj 404 287 f 0;
#X obj 389 311 f;
#X obj 357 460 ==;
#X obj 357 514 select 1;
#X obj 358 15 inlet;
#X obj 417 15 inlet;
#X obj 413 551 f;
#X obj 376 556 f;
#X obj 391 399 tabread \$4-spectrum;
#X floatatom 242 405 5 0 0 0 - - -;
#X floatatom 298 568 5 0 0 0 - - -;
#X obj 106 87 t b a b b b;
#X msg 190 88 0;
#X obj 413 574 outlet adr;
#X obj 376 608 outlet max;
#X obj 106 433 outlet min;
#X obj 391 421 * 256;
#X obj 391 443 i;
#X obj 170 244 moses 1;
#X floatatom 376 573 5 0 0 0 - - -;
#X obj 389 370 t f f f;
#X obj 419 333 select;
#X msg 474 370 stop;
#X obj 357 534 t b b b;
#X obj 331 272 del 0.1;
#X obj 473 428 r \$4-tabBang;
#X obj 357 481 f;
#X obj 473 449 del 10;
#X floatatom 265 510 5 0 0 0 - - -;
#X obj 473 497 f;
#X obj 473 517 select 0;
#X connect 0 0 1 0;
#X connect 1 0 11 0;
#X connect 2 0 9 1;
#X connect 3 0 17 1;
#X connect 4 0 26 0;
#X connect 5 0 30 0;
#X connect 6 0 8 1;
#X connect 6 0 9 1;
#X connect 7 0 8 1;
#X connect 8 0 7 0;
#X connect 8 0 33 0;
#X connect 9 0 2 0;
#X connect 9 0 5 1;
#X connect 11 0 9 0;
#X connect 11 1 8 0;
#X connect 11 2 6 0;
#X connect 12 0 13 0;
#X connect 12 1 5 0;
#X connect 12 2 3 0;
#X connect 13 0 16 0;
#X connect 13 1 39 0;
#X connect 14 0 16 1;
#X connect 14 0 36 0;
#X connect 15 0 16 1;
#X connect 16 0 14 0;
#X connect 16 0 24 0;
#X connect 16 0 35 0;
#X connect 17 0 41 0;
#X connect 18 0 38 0;
#X connect 19 0 36 1;
#X connect 20 0 15 1;
#X connect 21 0 25 0;
#X connect 21 0 28 0;
#X connect 22 0 34 0;
#X connect 22 0 29 0;
#X connect 23 0 31 0;
#X connect 26 0 12 0;
#X connect 26 1 0 0;
#X connect 26 2 6 1;
#X connect 26 3 15 0;
#X connect 26 4 27 0;
#X connect 27 0 8 1;
#X connect 31 0 32 0;
#X connect 32 0 17 0;
#X connect 32 0 22 1;
#X connect 33 1 3 1;
#X connect 35 1 23 0;
#X connect 35 2 21 1;
#X connect 36 0 37 0;
#X connect 37 0 39 0;
#X connect 38 0 22 0;
#X connect 38 1 21 0;
#X connect 38 2 37 0;
#X connect 39 0 13 0;
#X connect 40 0 42 0;
#X connect 41 0 18 0;
#X connect 41 0 43 0;
#X connect 41 0 44 1;
#X connect 42 0 44 0;
#X connect 44 0 45 0;
#X connect 45 0 38 0;
#X restore 51 326 pd list-max+pos;
#X obj 49 359 pack f f;
#X obj 94 308 f \$1;
#X obj 138 308 f \$2;
#X obj 48 8 del 1;
#X obj 80 169 + 1;
#X obj 51 169 f;
#X obj 80 65 f \$2;
#X obj 192 289 list append;
#X obj 171 309 list;
#X obj 171 207 select;
#X obj 240 150 f \$1;
#X obj 205 149 f \$2;
#X obj 205 181 +;
#X obj 51 190 t f f;
#X obj 266 288 t a;
#X obj 47 30 t b b b;
#X obj 78 229 tabread \$4-spectrum;
#X obj 125 -53 r \$4-bang;
#X obj 49 399 s \$4-max/adr;
#X obj 49 380 list prepend \$3;
#X obj 62 -36 f \$3;
#X obj 193 246 * 256;
#X obj 193 268 i;
#X obj 61 -15 * 2;
#X obj 48 -76 r \$4-tabBang;
#X msg 122 109 stop;
#X obj 120 167 select;
#X obj 47 126 del 0.1;
#X obj 47 145 t b b;
#X connect 0 1 1 1;
#X connect 0 2 1 0;
#X connect 1 0 20 0;
#X connect 2 0 0 1;
#X connect 3 0 0 2;
#X connect 4 0 16 0;
#X connect 5 0 6 1;
#X connect 5 0 27 0;
#X connect 6 0 5 0;
#X connect 6 0 14 0;
#X connect 7 0 6 1;
#X connect 8 0 9 1;
#X connect 8 0 15 0;
#X connect 9 0 0 0;
#X connect 10 0 9 0;
#X connect 11 0 13 1;
#X connect 11 0 27 1;
#X connect 12 0 13 0;
#X connect 13 0 10 1;
#X connect 14 0 10 0;
#X connect 14 1 17 0;
#X connect 15 0 8 1;
#X connect 16 0 28 0;
#X connect 16 1 7 0;
#X connect 16 2 8 1;
#X connect 17 0 22 0;
#X connect 18 0 2 0;
#X connect 18 0 3 0;
#X connect 18 0 11 0;
#X connect 18 0 12 0;
#X connect 18 0 21 0;
#X connect 20 0 19 0;
#X connect 21 0 24 0;
#X connect 22 0 23 0;
#X connect 23 0 8 0;
#X connect 24 0 4 1;
#X connect 25 0 4 0;
#X connect 26 0 28 0;
#X connect 27 0 26 0;
#X connect 28 0 29 0;
#X connect 29 0 28 0;
#X connect 29 1 6 0;
